<svg id="Layer_1" data-name="Layer 1" xmlns="http://www.w3.org/2000/svg" viewBox="0 0 504.61 180.56"><defs><style>.cls-1,.cls-2{fill:#fff;}.cls-1{fill-rule:evenodd;}</style></defs><path class="cls-1" d="M301.72,73.8a3.58,3.58,0,0,1-3.65,4.83H287.78a6.74,6.74,0,0,1-6.22-4.94l-2.15-8c-5-19.09-10.45-39.5-15.5-58.63a3.58,3.58,0,0,1,3.65-4.83h10.29a6.73,6.73,0,0,1,6.22,4.93l2.52,9.45C291.63,35.7,296.66,54.66,301.72,73.8Z"/><path class="cls-1" d="M331.88,73.8a3.58,3.58,0,0,1-3.64,4.83h-10.3a6.74,6.74,0,0,1-6.22-4.94l-2.14-8c-5-19.08-10.46-39.51-15.51-58.63a3.58,3.58,0,0,1,3.64-4.83H308a6.73,6.73,0,0,1,6.22,4.93l2.52,9.45C321.79,35.69,326.83,54.67,331.88,73.8Z"/><path class="cls-1" d="M183,73.79a3.58,3.58,0,0,0,3.65,4.83H197a6.72,6.72,0,0,0,5.91-4h0c3.39-12.66,8.17-34.93,12.8-47.27a13.88,13.88,0,0,1,3.48-5.3c5-4.7,11.32-4.7,16.29,0a13.71,13.71,0,0,1,3.23,4.67c3.61,8.45,9.08,33.23,11.54,42.53l1.2,4.47a6.74,6.74,0,0,0,6.22,4.94h10.29a3.58,3.58,0,0,0,3.65-4.83L258.39,23.85c-7.76-31.83-53.65-31.76-62.17,0Z"/><path class="cls-1" d="M72.8,117.57a14.7,14.7,0,0,1,14.67,14.7v23.57h8.84V132.27A23.48,23.48,0,0,0,58.13,113.9V109H49.3v46.83h8.83V131.71A14.73,14.73,0,0,1,72.8,117.57Z"/><path class="cls-1" d="M156.92,132.29v-14h14.67v-8.93H156.92v-8.93h-8.84v31.83a23.41,23.41,0,0,0,23.51,23.55v-8.75A14.84,14.84,0,0,1,156.92,132.29Z"/><path class="cls-1" d="M196.49,108.73A23.56,23.56,0,1,0,220,132.29a23.53,23.53,0,0,0-23.51-23.56Zm0,38.27a14.72,14.72,0,1,1,14.67-14.71A14.71,14.71,0,0,1,196.49,147Z"/><path class="cls-1" d="M232.08,132.43v-47h-8.84v47A23.62,23.62,0,0,0,246.85,156v-8.94A14.7,14.7,0,0,1,232.08,132.43Z"/><path class="cls-1" d="M311,117.66a14.7,14.7,0,0,1,14.66,14.7v23.57h8.84V132.36a23.51,23.51,0,0,0-42.59-13.76,23.4,23.4,0,0,0-33.76-4.7V109h-8.84v46.83h8.84V131.71a14.68,14.68,0,0,1,29.34,0v24.13h8.84v-24A14.72,14.72,0,0,1,311,117.66Z"/><path class="cls-1" d="M375.85,132.52A14.57,14.57,0,0,1,361.09,147a15.07,15.07,0,0,1-6.77-1.69l26.23-26.52a23.67,23.67,0,1,0,4.14,13.73Zm-29.24,0c0-8.48,6.39-15,14.48-15a15,15,0,0,1,6.77,1.61L348.11,139A15.29,15.29,0,0,1,346.61,132.52Z"/><path class="cls-1" d="M426.13,85.13V113.9a23.24,23.24,0,0,0-14.67-5.17A23.56,23.56,0,1,0,435,132.19V85.13ZM411.46,147a14.76,14.76,0,1,1,14.67-14.9v.09A14.61,14.61,0,0,1,411.46,147Z"/><path class="cls-1" d="M438.26,155.84h8.84V109.39h-8.84v46.45ZM448.69,96a6,6,0,1,0-6,6A6.06,6.06,0,0,0,448.69,96Z"/><path class="cls-1" d="M504.61,146.81c-4.32-2.25-7.24-7.35-7.24-12.64v-2a23.46,23.46,0,1,0-46.92,0A23.55,23.55,0,0,0,474,155.84a23.21,23.21,0,0,0,18.71-9.22c2.82,4.14,6.77,8.19,11.94,9v-8.84Zm-16.08-14.62A14.62,14.62,0,1,1,474,117.66,14.41,14.41,0,0,1,488.53,132.19Z"/><path class="cls-1" d="M23.37,118a14.24,14.24,0,0,0-5.77,1.17A15,15,0,0,0,13,122.32,14.57,14.57,0,0,0,9.87,127a14.51,14.51,0,0,0,0,11.37A14.57,14.57,0,0,0,13,143a15,15,0,0,0,4.63,3.15,14.69,14.69,0,0,0,11.49,0,15,15,0,0,0,7.77-7.83,14.36,14.36,0,0,0,0-11.31,15,15,0,0,0-7.77-7.83A14.1,14.1,0,0,0,23.37,118ZM38,151.68v-.83a23.82,23.82,0,0,1-6.81,3.83A22.58,22.58,0,0,1,23.37,156a22.48,22.48,0,0,1-16.52-6.85,23.33,23.33,0,0,1,0-33,22.48,22.48,0,0,1,16.52-6.85,22.64,22.64,0,0,1,16.51,6.85,22.45,22.45,0,0,1,6.85,16.51v19a4.36,4.36,0,0,1-8.71,0Z"/><path class="cls-1" d="M122.25,118a14.23,14.23,0,0,0-5.76,1.17,15,15,0,0,0-4.63,3.15,14.76,14.76,0,0,0-3.11,4.65,14.63,14.63,0,0,0,0,11.37,14.76,14.76,0,0,0,3.11,4.65,15,15,0,0,0,4.63,3.15,14.69,14.69,0,0,0,11.49,0,14.63,14.63,0,0,0,4.64-3.18,14.94,14.94,0,0,0,3.13-4.65,14.48,14.48,0,0,0,0-11.31,14.82,14.82,0,0,0-3.13-4.65,14.63,14.63,0,0,0-4.64-3.18,14.12,14.12,0,0,0-5.73-1.17Zm14.65,33.68v-.83a23.63,23.63,0,0,1-6.8,3.83,23.37,23.37,0,0,1-24.36-38.54,23.33,23.33,0,0,1,33,0,22.45,22.45,0,0,1,6.85,16.51v19a4.34,4.34,0,0,1-4.33,4.34,4.31,4.31,0,0,1-3.12-1.27A4.23,4.23,0,0,1,136.9,151.68Z"/><path class="cls-1" d="M474,124a8.33,8.33,0,1,1-8.32,8.32A8.32,8.32,0,0,1,474,124Z"/><path class="cls-2" d="M259,167.33v9.15h-2.23v-.64a4.69,4.69,0,0,1-2.8.85,4.38,4.38,0,0,1-3.27-1.39,4.95,4.95,0,0,1,0-6.77,4.36,4.36,0,0,1,3.27-1.41,4.69,4.69,0,0,1,2.8.85v-.64Zm-4.7,7.43a2.79,2.79,0,0,0,2.47-1.3v-3.11a2.79,2.79,0,0,0-2.47-1.3,2.57,2.57,0,0,0-1.94.85,3,3,0,0,0,0,4A2.56,2.56,0,0,0,254.27,174.76Z"/><path class="cls-2" d="M276.34,167a3.76,3.76,0,0,1,2.9,1.2,4.55,4.55,0,0,1,1.1,3.19v5h-2.22v-4.91a2.62,2.62,0,0,0-.6-1.85,2.15,2.15,0,0,0-1.65-.65,3.07,3.07,0,0,0-2.36,1.32v6.09h-2.24v-9.15h2.24v.75A4.3,4.3,0,0,1,276.34,167Z"/><path class="cls-2" d="M301.66,171.91a4.76,4.76,0,0,1-1.39,3.49,5.09,5.09,0,0,1-6.95,0,4.73,4.73,0,0,1-1.39-3.49,4.61,4.61,0,0,1,1.39-3.42,4.81,4.81,0,0,1,3.48-1.37,4.73,4.73,0,0,1,3.47,1.37A4.65,4.65,0,0,1,301.66,171.91Zm-2.23,0a2.76,2.76,0,0,0-.74-2,2.67,2.67,0,0,0-3.79,0,2.77,2.77,0,0,0-.75,2,3,3,0,0,0,.74,2,2.49,2.49,0,0,0,1.91.81,2.41,2.41,0,0,0,1.9-.81A3,3,0,0,0,299.43,171.91Z"/><path class="cls-2" d="M318.39,167a3.74,3.74,0,0,1,2.9,1.2,4.5,4.5,0,0,1,1.1,3.19v5h-2.22v-4.91a2.62,2.62,0,0,0-.6-1.85,2.14,2.14,0,0,0-1.64-.65,3.05,3.05,0,0,0-2.36,1.32v6.09h-2.25v-9.15h2.25v.75A4.26,4.26,0,0,1,318.39,167Z"/><path class="cls-2" d="M334.37,164a1.3,1.3,0,0,1,.4-1,1.43,1.43,0,0,1,2,0,1.3,1.3,0,0,1,.4,1,1.25,1.25,0,0,1-.4.95,1.45,1.45,0,0,1-2,0A1.25,1.25,0,0,1,334.37,164Zm2.51,3.31v9.15h-2.22v-9.15Z"/><path class="cls-2" d="M360.44,167a3.72,3.72,0,0,1,2.85,1.22,4.48,4.48,0,0,1,1.14,3.17v5h-2.25v-4.91a2.71,2.71,0,0,0-.57-1.85,2.06,2.06,0,0,0-1.63-.65,2.52,2.52,0,0,0-2.11,1.26,4.88,4.88,0,0,1,.12,1.1v5h-2.23v-4.91a2.67,2.67,0,0,0-.58-1.85,2.08,2.08,0,0,0-1.62-.65,2.55,2.55,0,0,0-2,1.22v6.19h-2.24v-9.15h2.24V168A3.45,3.45,0,0,1,354,167a3.63,3.63,0,0,1,3,1.39A4.79,4.79,0,0,1,360.44,167Z"/><path class="cls-2" d="M390.74,173.38l2.06,0c.19,1,.93,1.55,2.23,1.55a2.87,2.87,0,0,0,1.34-.27.81.81,0,0,0,.52-.73c0-.53-.37-.86-1.11-1l-2-.33c-1.8-.3-2.71-1.17-2.71-2.63a2.54,2.54,0,0,1,1.06-2.15,4.51,4.51,0,0,1,2.79-.79,5.61,5.61,0,0,1,2.52.58,2.81,2.81,0,0,1,1.53,2.46h-2.07a1.27,1.27,0,0,0-.59-1,2.49,2.49,0,0,0-1.37-.35,2.22,2.22,0,0,0-1.2.28.83.83,0,0,0-.44.71c0,.56.42.91,1.28,1l1.7.27c1.83.29,2.74,1.17,2.74,2.65a2.59,2.59,0,0,1-1.1,2.22,4.9,4.9,0,0,1-2.94.8,4.84,4.84,0,0,1-3-.84A3.37,3.37,0,0,1,390.74,173.38Zm4.29,7.18h-1.92l.86-3h2.2Z"/><path class="cls-2" d="M410.76,164a1.3,1.3,0,0,1,.4-1,1.34,1.34,0,0,1,1-.4,1.36,1.36,0,0,1,1,.4,1.3,1.3,0,0,1,.4,1,1.25,1.25,0,0,1-.4.95,1.39,1.39,0,0,1-1,.39,1.37,1.37,0,0,1-1-.39A1.25,1.25,0,0,1,410.76,164Zm2.51,3.31v9.15h-2.22v-9.15Z"/><path class="cls-2" d="M428,167.33v1.16a4.48,4.48,0,0,1,3.33-1.33v2.1a4.32,4.32,0,0,0-3.33,1.53v5.69h-2.24v-9.15Z"/><path class="cls-2" d="M446.74,172.73l-1.65,1.7v2h-2.22V162.75h2.22v8.74l4-4.16H452l-3.68,3.79,4.2,5.36h-2.9Z"/><path class="cls-2" d="M471.81,171.76a6.43,6.43,0,0,1-.06,1h-7a2.53,2.53,0,0,0,.9,1.48,2.76,2.76,0,0,0,1.76.54,2,2,0,0,0,1.86-.85h2.38a3.61,3.61,0,0,1-1.56,2,5,5,0,0,1-2.73.74,4.79,4.79,0,1,1,0-9.57,4.21,4.21,0,0,1,3.17,1.29A4.68,4.68,0,0,1,471.81,171.76ZM467.22,169a2.44,2.44,0,0,0-1.66.57,2.62,2.62,0,0,0-.85,1.54h4.83a2.52,2.52,0,0,0-.73-1.55A2.25,2.25,0,0,0,467.22,169Z"/><path class="cls-2" d="M490.05,174.47l.31,1.91a8.24,8.24,0,0,1-2.29.39,3.34,3.34,0,0,1-2.59-1,3.94,3.94,0,0,1-1-2.78v-3.75h-2.09v-1.88h2.09V164h2.23v3.35h3.38v1.88h-3.38V173a1.54,1.54,0,0,0,1.74,1.74A6.19,6.19,0,0,0,490.05,174.47Z"/><path class="cls-2" d="M501.83,164a1.3,1.3,0,0,1,.4-1,1.34,1.34,0,0,1,1-.4,1.36,1.36,0,0,1,1,.4,1.3,1.3,0,0,1,.4,1,1.25,1.25,0,0,1-.4.95,1.39,1.39,0,0,1-1,.39,1.37,1.37,0,0,1-1-.39A1.25,1.25,0,0,1,501.83,164Zm2.51,3.31v9.15h-2.22v-9.15Z"/></svg>